<svg id="Capa_1" enable-background="new 0 0 512 512" height="512" viewBox="0 0 512 512" width="512" xmlns="http://www.w3.org/2000/svg"><g><path d="m389.418 3.56-5.068 14.209c-3.984 11.294-12.188 20.332-23.086 25.474-10.957 5.142-23.203 5.771-34.6 1.685-8.35-2.915-16.025-8.76-21.592-16.494l-27.158 22.295v401.271 30l30 30 166.172-477.825z" fill="#ae2538"/><path d="m307.914 361-18.6 15 18.6 15v121h-90v-15c0-24.901-20.099-45-45-45s-45 20.099-45 45v15h-90v-121l30-15-30-15v-361h90v15c0 24.899 20.099 45 45 45s45-20.101 45-45v-15h90z" fill="#ff6c6c"/><path d="m307.914 361-18.6 15 18.6 15v121h-90v-15c0-24.901-20.099-45-45-45v-392c24.901 0 45-20.101 45-45v-15h90z" fill="#e63950"/><g><path d="m37.914 361h60v30h-60z" fill="#ffd396"/></g><g><path d="m127.914 361h30v30h-30z" fill="#ffd396"/></g><g><g><g><path d="m187.914 361h30v30h-30z" fill="#ffb64c"/></g></g></g><g><g><g><path d="m247.914 361h60v30h-60z" fill="#ffb64c"/></g></g></g><g><g><g><g><path d="m251.214 175.3-58.799 10.499-19.501-20.4-22.5-23.699-8.401 60.899-53.099 26.7 53.099 27.001 8.401 60.899 22.5-23.699 19.501-20.4 58.799 10.199-27.599-54z" fill="#ffd396"/></g></g></g></g><path d="m223.614 229.3 27.6 53.999-58.799-10.199-19.501 20.4v-128.101l19.501 20.4 58.799-10.499z" fill="#ffb64c"/></g></svg>